<svg version="1" xmlns="http://www.w3.org/2000/svg" xmlns:xlink="http://www.w3.org/1999/xlink" x="0px" y="0px"
	 viewBox="0 0 24 24" style="enable-background:new 0 0 24 24;" xml:space="preserve">
<style type="text/css">
	.st0{fill:#FFFFFF;}
	.st1{fill:#CCE7FF;}
	.st2{fill:none;stroke:#1078FF;stroke-linecap:round;stroke-linejoin:round;stroke-miterlimit:10;}
	.st3{fill:none;}
</style>
<g id="Duotone">
	<polygon class="st0" points="4,10 1,9 1,16 4,14 18,22 18,3 	"/>
	<polygon class="st1" points="1,12 1,16 4,14 18,22 18,12 	"/>
	<polyline class="st2" points="7,16 7,19 13,23 13,19 	"/>
	<line class="st2" x1="21" y1="13" x2="24" y2="13"/>
	<line class="st2" x1="21" y1="8" x2="24" y2="6"/>
	<line class="st2" x1="21" y1="18" x2="24" y2="19"/>
	<line class="st2" x1="4" y1="10" x2="4" y2="14"/>
	<polygon class="st2" points="18,22 4,14 1,16 1,9 4,10 18,3 	"/>
</g>
<g id="Frames-24px">
	<rect class="st3" width="24" height="24"/>
</g>
</svg>