<svg version="1" xmlns="http://www.w3.org/2000/svg" xmlns:xlink="http://www.w3.org/1999/xlink" x="0px" y="0px"
	 viewBox="0 0 24 24" style="enable-background:new 0 0 24 24;" xml:space="preserve">
<style type="text/css">
	.st0{fill:#FFFFFF;}
	.st1{fill:#CCE7FF;}
	.st2{fill:none;stroke:#1078FF;stroke-linecap:round;stroke-linejoin:round;stroke-miterlimit:10;}
	.st3{fill:none;stroke:#1078FF;stroke-linejoin:round;stroke-miterlimit:10;}
	.st4{fill:none;stroke:#1078FF;stroke-linecap:round;stroke-miterlimit:10;}
	.st5{fill:none;}
</style>
<g id="Duotone">
	<path class="st0" d="M23,17l-1-6h-1V16l-2-6h4l-2-9h-19l-2,9h4L3,16v-5H2L1,17l1,4l-1,3h6l1-2l4-5L10,16
		l-3,2l2-7h6l2,7L14,16l-1,1l4,5l1,2h6l-1-3L23,17z M6,16l1-6h1L6,16z M16,11h1l1,6L16,11z"
		/>
	<polygon class="st1" points="5,10 7,10 6,11 8,11 8,10 10,10 9,11 15,11 15,10 16,10 16,11 
		18,11 18,10 19,10 19,11 24,11 23,9 1,9 1,11 5,11 	"/>
	<g>
		<line class="st2" x1="13" y1="11" x2="12" y2="11"/>
		<line class="st2" x1="6" y1="5" x2="6" y2="5"/>
		<line class="st2" x1="8" y1="5" x2="9" y2="5"/>
		<line class="st2" x1="11" y1="5" x2="11" y2="5"/>
		<line class="st2" x1="13" y1="5" x2="14" y2="5"/>
		<line class="st2" x1="16" y1="5" x2="16" y2="5"/>
		<line class="st2" x1="18" y1="5" x2="19" y2="5"/>
		<line class="st2" x1="5" y1="7" x2="5" y2="7"/>
		<line class="st2" x1="7" y1="7" x2="8" y2="7"/>
		<line class="st2" x1="10" y1="7" x2="10" y2="7"/>
		<line class="st2" x1="12" y1="7" x2="13" y2="7"/>
		<line class="st2" x1="15" y1="7" x2="15" y2="7"/>
		<line class="st2" x1="17" y1="7" x2="18" y2="7"/>
		<line class="st2" x1="20" y1="7" x2="20" y2="7"/>
		<polyline class="st2" points="1,11 3,2 22,2 24,11 		"/>
		<polyline class="st2" points="1,24 2,21 1,17 2,12 3,12 3,16 5,10 7,10 6,16 8,10 10,10 8,18 10,16 
			11,17 7,22 7,24 		"/>
		<polyline class="st2" points="24,24 23,21 23,17 22,12 21,12 21,16 19,10 18,10 19,16 16,10 15,10 
			17,18 14,16 13,17 17,22 18,24 		"/>
	</g>
</g>
<g id="Frames-24px">
	<rect class="st5" width="24" height="24"/>
</g>
</svg>